<?xml version="1.0" encoding="utf-8"?>
<!-- Generator: Adobe Illustrator 25.0.0, SVG Export Plug-In . SVG Version: 6.00 Build 0)  -->
<svg version="1.1" id="Layer_1" xmlns="http://www.w3.org/2000/svg" xmlns:xlink="http://www.w3.org/1999/xlink" x="0px" y="0px"
	 viewBox="0 0 1920 1080" style="enable-background:new 0 0 1920 1080;" xml:space="preserve">
<style type="text/css">
	.st0{stroke:#000000;stroke-miterlimit:10;}
	.st1{fill:#282828;}
	.st2{fill:#1C1C1C;}
	.st3{fill:#757575;}
	.st4{opacity:0.1;fill:url(#SVGID_1_);}
	.st5{opacity:0.2;fill:url(#SVGID_2_);}
	.st6{opacity:0.5;fill:url(#SVGID_3_);}
	.st7{fill:#F2F2F2;}
	.st8{fill:url(#SVGID_4_);}
	.st9{opacity:0.4;fill:url(#SVGID_5_);}
	.st10{fill:url(#SVGID_6_);}
	.st11{opacity:0.22;fill:#FFFFFF;}
	.st12{opacity:0.4;fill:url(#SVGID_7_);}
	.st13{fill:url(#SVGID_8_);}
	.st14{opacity:0.4;fill:url(#SVGID_9_);}
	.st15{fill:url(#SVGID_10_);}
	.st16{opacity:0.4;fill:url(#SVGID_11_);}
	.st17{fill:url(#SVGID_12_);}
	.st18{opacity:0.4;fill:url(#SVGID_13_);}
	.st19{fill:url(#SVGID_14_);}
</style>
<path class="st0" d="M0.5-0.5v1080h1920V-0.5H0.5z M1460.4,717.36c0,30.27-23.66,55.27-53.89,56.92
	c-53.87,2.94-125.5,5.34-208.59,6.93c-4.52,0.09-9.07,0.17-13.66,0.25c-69.2,1.23-145.89,1.92-226.6,1.92
	c-184.42,0-347.84-3.58-448.85-9.1c-30.23-1.65-53.89-26.65-53.89-56.92V370.37c0-30.27,23.66-55.27,53.89-56.92
	c79.17-4.32,196.68-7.46,332.59-8.62c2.03-0.02,4.07-0.04,6.11-0.05c35.6-0.29,72.44-0.44,110.15-0.44
	c184.42,0,347.84,3.59,448.85,9.1c30.23,1.65,53.89,26.65,53.89,56.92V717.36z"/>
<g>
	<polygon class="st1" points="411.52,397.83 443.64,397.83 443.64,386.47 399.44,386.47 399.44,583.57 443.64,583.57 443.64,572.2 
		411.52,572.2 	"/>
	<rect x="411.52" y="397.83" class="st2" width="7.48" height="174.37"/>
	<polygon points="419,405.32 411.52,397.83 443.64,397.83 443.64,405.32 	"/>
	<polygon class="st3" points="419,564.72 411.52,572.2 443.64,572.2 443.64,564.72 	"/>
</g>
<g>
	<polygon class="st1" points="1508.31,397.83 1476.19,397.83 1476.19,386.47 1520.39,386.47 1520.39,583.57 1476.19,583.57 
		1476.19,572.2 1508.31,572.2 	"/>
	
		<rect x="1500.83" y="397.83" transform="matrix(-1 -1.224647e-16 1.224647e-16 -1 3009.1389 970.0347)" class="st2" width="7.48" height="174.37"/>
	<polygon points="1500.83,405.32 1508.31,397.83 1476.19,397.83 1476.19,405.32 	"/>
	<polygon class="st3" points="1500.83,564.72 1508.31,572.2 1476.19,572.2 1476.19,564.72 	"/>
</g>
<ellipse class="st1" cx="957.58" cy="296.27" rx="383.83" ry="20.4"/>
<linearGradient id="SVGID_1_" gradientUnits="userSpaceOnUse" x1="957.5818" y1="803.3253" x2="957.5818" y2="283.596">
	<stop  offset="0" style="stop-color:#666666"/>
	<stop  offset="1" style="stop-color:#D3D3D3"/>
</linearGradient>
<path class="st4" d="M1406.73,307.44c-104.45-5.71-272.35-9.11-449.15-9.11c-37.08,0-74.15,0.15-110.19,0.44
	c-136.22,1.09-256.59,4.18-338.96,8.68c-33.19,1.81-59.2,29.28-59.2,62.53v346.99c0,33.25,26,60.71,59.2,62.53
	c104.42,5.7,272.33,9.11,449.15,9.11c84.12,0,164.99-0.73,240.36-2.17c82.46-1.58,154.66-3.98,208.79-6.94
	c33.19-1.81,59.2-29.28,59.2-62.53V369.97C1465.93,336.72,1439.93,309.26,1406.73,307.44z"/>
<linearGradient id="SVGID_2_" gradientUnits="userSpaceOnUse" x1="961.5112" y1="297.8386" x2="961.5112" y2="788.0984">
	<stop  offset="0" style="stop-color:#666666"/>
	<stop  offset="1" style="stop-color:#F2F2F2"/>
</linearGradient>
<path class="st5" d="M1410.66,306.95c-104.45-5.71-272.35-9.11-449.15-9.11c-37.08,0-74.15,0.15-110.19,0.44
	c-136.22,1.09-256.59,4.18-338.96,8.68c-33.19,1.81-59.2,29.28-59.2,62.53v346.99c0,33.25,26,60.71,59.2,62.53
	c104.42,5.7,272.33,9.11,449.15,9.11c84.12,0,164.99-0.73,240.36-2.17c82.46-1.58,154.66-3.98,208.79-6.94
	c33.19-1.81,59.2-29.28,59.2-62.53V369.48C1469.86,336.23,1443.86,308.76,1410.66,306.95z"/>
<linearGradient id="SVGID_3_" gradientUnits="userSpaceOnUse" x1="454.8479" y1="543.4597" x2="1460.3157" y2="543.4597">
	<stop  offset="0" style="stop-color:#000000"/>
	<stop  offset="9.093530e-03" style="stop-color:#040404"/>
	<stop  offset="0.0514" style="stop-color:#141414"/>
	<stop  offset="0.0843" style="stop-color:#1A1A1A"/>
	<stop  offset="0.1278" style="stop-color:#111111"/>
	<stop  offset="0.1793" style="stop-color:#000000"/>
	<stop  offset="0.838" style="stop-color:#000000"/>
	<stop  offset="0.9255" style="stop-color:#1A1A1A"/>
	<stop  offset="0.9543" style="stop-color:#151515"/>
	<stop  offset="0.9868" style="stop-color:#080808"/>
	<stop  offset="1" style="stop-color:#000000"/>
</linearGradient>
<path class="st6" d="M1460.32,369.97v346.99c0,30.27-23.66,55.27-53.89,56.92c-53.87,2.94-125.5,5.34-208.59,6.93
	c-4.52,0.09-9.07,0.17-13.66,0.25c-69.2,1.23-145.89,1.92-226.6,1.92c-184.42,0-347.84-3.58-448.85-9.1
	c-30.23-1.65-53.89-26.65-53.89-56.92V369.97c0-30.27,23.66-55.27,53.89-56.92c79.17-4.32,196.68-7.46,332.59-8.62
	c2.03-0.02,4.07-0.04,6.11-0.05c35.6-0.29,72.44-0.44,110.15-0.44c184.42,0,347.84,3.59,448.84,9.1
	C1436.65,314.7,1460.32,339.69,1460.32,369.97z"/>
<polygon class="st7" points="1059.28,723.11 957.58,723.11 855.88,723.11 789.35,787.67 957.58,787.67 1125.82,787.67 "/>
<linearGradient id="SVGID_4_" gradientUnits="userSpaceOnUse" x1="434.4984" y1="543.4597" x2="1480.6652" y2="543.4597">
	<stop  offset="0" style="stop-color:#B3B3B3"/>
	<stop  offset="3.177207e-03" style="stop-color:#B6B6B6"/>
	<stop  offset="0.0345" style="stop-color:#D0D0D0"/>
	<stop  offset="0.0625" style="stop-color:#E0E0E0"/>
	<stop  offset="0.0843" style="stop-color:#E6E6E6"/>
	<stop  offset="0.1108" style="stop-color:#DDDDDD"/>
	<stop  offset="0.154" style="stop-color:#C4C4C4"/>
	<stop  offset="0.1793" style="stop-color:#B3B3B3"/>
	<stop  offset="0.838" style="stop-color:#B3B3B3"/>
	<stop  offset="0.9255" style="stop-color:#E6E6E6"/>
	<stop  offset="0.9453" style="stop-color:#E1E1E1"/>
	<stop  offset="0.9678" style="stop-color:#D4D4D4"/>
	<stop  offset="0.9913" style="stop-color:#BDBDBD"/>
	<stop  offset="1" style="stop-color:#B3B3B3"/>
</linearGradient>
<path class="st8" d="M1407.54,292.73c-104.7-5.72-272.91-9.13-449.95-9.13c-37.13,0-74.24,0.15-110.31,0.44
	c-136.43,1.1-257.05,4.19-339.64,8.7c-41.01,2.24-73.13,36.17-73.13,77.24v346.99c0,41.07,32.12,75,73.13,77.24
	c104.67,5.72,272.88,9.13,449.95,9.13c84.21,0,165.18-0.73,240.64-2.18c82.63-1.58,155.01-3.99,209.31-6.95
	c41.01-2.24,73.13-36.17,73.13-77.24V369.97C1480.67,328.9,1448.54,294.97,1407.54,292.73z M1465.93,716.95
	c0,33.25-26,60.71-59.2,62.53c-54.13,2.96-126.33,5.35-208.79,6.94c-26.04,0.5-52.73,0.91-79.99,1.24l-60.26-59.4H957.58H857.47
	l-60.24,59.38c-114.53-1.38-216.77-4.22-288.8-8.16c-33.19-1.81-59.2-29.28-59.2-62.53V369.97c0-33.25,26-60.71,59.2-62.53
	c82.36-4.5,202.74-7.58,338.96-8.68c36.04-0.29,73.12-0.44,110.19-0.44c176.8,0,344.71,3.41,449.15,9.11
	c33.19,1.81,59.2,29.28,59.2,62.53V716.95z"/>
<g>
	<g>
		<linearGradient id="SVGID_5_" gradientUnits="userSpaceOnUse" x1="914.2328" y1="316.5989" x2="914.2328" y2="328.6801">
			<stop  offset="0" style="stop-color:#000000"/>
			<stop  offset="0.0841" style="stop-color:#070707"/>
			<stop  offset="0.2022" style="stop-color:#191919"/>
			<stop  offset="0.3404" style="stop-color:#373737"/>
			<stop  offset="0.4939" style="stop-color:#616161"/>
			<stop  offset="0.6599" style="stop-color:#969696"/>
			<stop  offset="0.8339" style="stop-color:#D7D7D7"/>
			<stop  offset="0.933" style="stop-color:#FFFFFF"/>
		</linearGradient>
		<circle class="st9" cx="914.23" cy="324.01" r="7.34"/>
		<radialGradient id="SVGID_6_" cx="914.2328" cy="324.0052" r="6.3564" gradientUnits="userSpaceOnUse">
			<stop  offset="0" style="stop-color:#11F217"/>
			<stop  offset="0.5281" style="stop-color:#10B613"/>
			<stop  offset="1" style="stop-color:#108410"/>
		</radialGradient>
		<circle class="st10" cx="914.23" cy="324.01" r="6.36"/>
		<ellipse class="st11" cx="914.23" cy="320.63" rx="3.86" ry="2.16"/>
		<path class="st11" d="M917.04,325.65c0,0.87-1.26,1.57-2.81,1.57c-1.55,0-2.81-0.7-2.81-1.57s1.26-1.57,2.81-1.57
			C915.78,324.08,917.04,324.78,917.04,325.65z"/>
	</g>
	<g>
		<linearGradient id="SVGID_7_" gradientUnits="userSpaceOnUse" x1="935.9073" y1="316.5989" x2="935.9073" y2="328.6801">
			<stop  offset="0" style="stop-color:#000000"/>
			<stop  offset="0.0841" style="stop-color:#070707"/>
			<stop  offset="0.2022" style="stop-color:#191919"/>
			<stop  offset="0.3404" style="stop-color:#373737"/>
			<stop  offset="0.4939" style="stop-color:#616161"/>
			<stop  offset="0.6599" style="stop-color:#969696"/>
			<stop  offset="0.8339" style="stop-color:#D7D7D7"/>
			<stop  offset="0.933" style="stop-color:#FFFFFF"/>
		</linearGradient>
		<circle class="st12" cx="935.91" cy="324.01" r="7.34"/>
		<radialGradient id="SVGID_8_" cx="935.9073" cy="324.0052" r="6.3564" gradientUnits="userSpaceOnUse">
			<stop  offset="0" style="stop-color:#11F217"/>
			<stop  offset="0.5281" style="stop-color:#10B613"/>
			<stop  offset="1" style="stop-color:#108410"/>
		</radialGradient>
		<circle class="st13" cx="935.91" cy="324.01" r="6.36"/>
		<ellipse class="st11" cx="935.91" cy="320.63" rx="3.86" ry="2.16"/>
		<path class="st11" d="M938.71,325.65c0,0.87-1.26,1.57-2.81,1.57c-1.55,0-2.81-0.7-2.81-1.57s1.26-1.57,2.81-1.57
			C937.46,324.08,938.71,324.78,938.71,325.65z"/>
	</g>
	<g>
		<linearGradient id="SVGID_9_" gradientUnits="userSpaceOnUse" x1="957.5818" y1="316.5989" x2="957.5818" y2="328.6801">
			<stop  offset="0" style="stop-color:#000000"/>
			<stop  offset="0.0841" style="stop-color:#070707"/>
			<stop  offset="0.2022" style="stop-color:#191919"/>
			<stop  offset="0.3404" style="stop-color:#373737"/>
			<stop  offset="0.4939" style="stop-color:#616161"/>
			<stop  offset="0.6599" style="stop-color:#969696"/>
			<stop  offset="0.8339" style="stop-color:#D7D7D7"/>
			<stop  offset="0.933" style="stop-color:#FFFFFF"/>
		</linearGradient>
		<circle class="st14" cx="957.58" cy="324.01" r="7.34"/>
		<radialGradient id="SVGID_10_" cx="957.5818" cy="324.0052" r="6.3564" gradientUnits="userSpaceOnUse">
			<stop  offset="0" style="stop-color:#11F217"/>
			<stop  offset="0.5281" style="stop-color:#10B613"/>
			<stop  offset="1" style="stop-color:#108410"/>
		</radialGradient>
		<circle class="st15" cx="957.58" cy="324.01" r="6.36"/>
		<ellipse class="st11" cx="957.58" cy="320.63" rx="3.86" ry="2.16"/>
		<path class="st11" d="M960.39,325.65c0,0.87-1.26,1.57-2.81,1.57s-2.81-0.7-2.81-1.57s1.26-1.57,2.81-1.57
			S960.39,324.78,960.39,325.65z"/>
	</g>
	<g>
		<linearGradient id="SVGID_11_" gradientUnits="userSpaceOnUse" x1="979.2562" y1="316.5989" x2="979.2562" y2="328.6801">
			<stop  offset="0" style="stop-color:#000000"/>
			<stop  offset="0.0841" style="stop-color:#070707"/>
			<stop  offset="0.2022" style="stop-color:#191919"/>
			<stop  offset="0.3404" style="stop-color:#373737"/>
			<stop  offset="0.4939" style="stop-color:#616161"/>
			<stop  offset="0.6599" style="stop-color:#969696"/>
			<stop  offset="0.8339" style="stop-color:#D7D7D7"/>
			<stop  offset="0.933" style="stop-color:#FFFFFF"/>
		</linearGradient>
		<circle class="st16" cx="979.26" cy="324.01" r="7.34"/>
		<radialGradient id="SVGID_12_" cx="979.2562" cy="324.0052" r="6.3564" gradientUnits="userSpaceOnUse">
			<stop  offset="0" style="stop-color:#999999"/>
			<stop  offset="0.3345" style="stop-color:#7E7E7E"/>
			<stop  offset="1" style="stop-color:#4D4D4D"/>
		</radialGradient>
		<circle class="st17" cx="979.26" cy="324.01" r="6.36"/>
		<ellipse class="st11" cx="979.26" cy="320.63" rx="3.86" ry="2.16"/>
		<path class="st11" d="M982.06,325.65c0,0.87-1.26,1.57-2.81,1.57s-2.81-0.7-2.81-1.57s1.26-1.57,2.81-1.57
			S982.06,324.78,982.06,325.65z"/>
	</g>
	<g>
		<linearGradient id="SVGID_13_" gradientUnits="userSpaceOnUse" x1="1000.9307" y1="316.5989" x2="1000.9307" y2="328.6801">
			<stop  offset="0" style="stop-color:#000000"/>
			<stop  offset="0.0841" style="stop-color:#070707"/>
			<stop  offset="0.2022" style="stop-color:#191919"/>
			<stop  offset="0.3404" style="stop-color:#373737"/>
			<stop  offset="0.4939" style="stop-color:#616161"/>
			<stop  offset="0.6599" style="stop-color:#969696"/>
			<stop  offset="0.8339" style="stop-color:#D7D7D7"/>
			<stop  offset="0.933" style="stop-color:#FFFFFF"/>
		</linearGradient>
		<circle class="st18" cx="1000.93" cy="324.01" r="7.34"/>
		<radialGradient id="SVGID_14_" cx="1000.9307" cy="324.0052" r="6.3564" gradientUnits="userSpaceOnUse">
			<stop  offset="0" style="stop-color:#999999"/>
			<stop  offset="0.3345" style="stop-color:#7E7E7E"/>
			<stop  offset="1" style="stop-color:#4D4D4D"/>
		</radialGradient>
		<circle class="st19" cx="1000.93" cy="324.01" r="6.36"/>
		<ellipse class="st11" cx="1000.93" cy="320.63" rx="3.86" ry="2.16"/>
		<path class="st11" d="M1003.74,325.65c0,0.87-1.26,1.57-2.81,1.57c-1.55,0-2.81-0.7-2.81-1.57s1.26-1.57,2.81-1.57
			C1002.48,324.08,1003.74,324.78,1003.74,325.65z"/>
	</g>
</g>
</svg>
