<svg xmlns="http://www.w3.org/2000/svg" xmlns:xlink="http://www.w3.org/1999/xlink" width="200" height="50" viewBox="0 0 200 50"><defs><style>.a{fill:none;}.b{clip-path:url(#a);}.c{fill:#a4cf6b;}.c,.d{fill-rule:evenodd;}.d,.e{fill:#fff;}</style><clipPath id="a"><rect class="a" width="200" height="50"/></clipPath></defs><g class="b"><path class="c" d="M40.4,48.726h.011a49.662,49.662,0,0,0,18.105-3.234c9.523-3.734,19.162-10.636,18.749-22.152a18.12,18.12,0,0,0-3.309-9.559l-.275-.539-2.2-2.465c-1.84-1.847-5.776-4.984-8.153-5.69C63.8,7.4,59.9,11.1,58.639,10.994l-.2-1.5a5.767,5.767,0,0,0-2.474-3.6c-3.224-1.949-10.847-1.239-10.226,6.549a9.519,9.519,0,0,0,3.117,5.178c4.134,4.016,10.824,7.261,10.976,13.885.125,5.4-2.976,8.725-5.808,10.783C50.644,44.742,45.514,45.977,40.414,46H40.38c-5.1-.02-10.231-1.254-13.608-3.709C23.94,40.23,20.839,36.9,20.963,31.505c.154-6.624,6.842-9.869,10.977-13.885a9.519,9.519,0,0,0,3.117-5.178c.621-7.789-7-8.5-10.226-6.549a5.761,5.761,0,0,0-2.473,3.6l-.2,1.5c-1.264.1-5.162-3.591-4.691-5.906-2.377.706-6.313,3.843-8.153,5.69l-2.2,2.465-.275.539A18.126,18.126,0,0,0,3.531,23.34c-.413,11.516,9.226,18.417,18.749,22.152a49.665,49.665,0,0,0,18.1,3.234Z" transform="translate(-1.319 -1.866)"/><path class="d" d="M149.411,23.6c4.62.781,3.752,2.64,2.507,3.082a4.962,4.962,0,0,1-3.247-.187,2.46,2.46,0,0,1-1.081-.791,9.638,9.638,0,0,1-.644-1.239l-.591.062-4.826.926c1.807,8.073,15.709,7.711,17.357.708a5.37,5.37,0,0,0-1.443-5.284c-2.5-2.567-11.178-2.321-8.667-4.828a2.987,2.987,0,0,1,2.894-.44c1.177.357,1.29.924,1.882,1.769l4.944-1.392a6.9,6.9,0,0,0-2.029-3.005,7.5,7.5,0,0,0-3.45-1.669c-3.865-.834-9.1.47-10.324,4.37a5.16,5.16,0,0,0,2.956,6.636,36.889,36.889,0,0,0,3.764,1.282m36.5,1.364a5.186,5.186,0,0,1-.575,2.211,1.355,1.355,0,0,1-1.911.544c-1.095-.725-.749-3.369-.749-4.824a3.739,3.739,0,0,1,.375-2.339c1.043-1.244,3.352-.6,2.86,4.409M182.229,18.7l-.007-2.092-5.08-.01-.01,19.463,5.533.01.016-6.4c.656.453,1.067,1.571,3.1,1.736a4.894,4.894,0,0,0,3.638-1.135c1.617-1.285,2.514-4.136,2.4-7.084s-1.254-5.277-3.136-6.343a4.7,4.7,0,0,0-5.365.421,6.161,6.161,0,0,0-.939,1.24Zm-12.706,5.449c-.011,1.206.1,2.562-.586,3.289-.506.534-2.161.938-2.875.194-.834-.869-.181-2.058.5-2.564a6.815,6.815,0,0,1,2.958-.919m-9.269-3.414,5.157.509c.333-2.363,4.7-2.4,4.058.314-3.722.211-10.141.834-9.561,6.144.484,4.443,7.074,4.806,9.257,2.036l.311-.406c.174-.179-.022-.021.2-.181l.235,1.9,5.482.011c-.694-1.792-.429-5.788-.428-8.067,0-2.346.014-5.012-2.606-6.093-3.1-1.28-11.078-1.341-12.109,3.835m46.665,1.334a2.039,2.039,0,1,1,3.981,0Zm9.689,4.229-5.3-.334c-.4,1.118-.834,1.974-2.633,1.736-1.392-.184-1.812-1.227-1.855-2.741h9.9c.331-4.511-2.037-8-6.554-8.627-7.831-1.089-11.572,6.833-7.911,11.976,3.079,4.325,10.264,4.043,13.126.521a5.324,5.324,0,0,0,1.224-2.532m6.908-7.793-.006-1.881-5.1-.03-.014,14.468,5.507,0c.1-1.967.011-4.126.011-6.094,0-1.608-.472-4.729,1.411-4.839,1.066-.062,1.364.621,1.438,1.609.186,2.5-.2,6.574.039,9.327h5.5c.1-2.05.014-4.323.014-6.392,0-3.874.654-8.406-4.526-8.453a4.874,4.874,0,0,0-2.6.622,3.3,3.3,0,0,0-1.406,1.354Zm12.339-6.317a30.193,30.193,0,0,0-.417,4.372l-2.415.04-.009,3.656,2.152.009a43.546,43.546,0,0,1,.046,5c0,1.621-.1,3.067.666,4.325,1.375,2.261,4.814,2.087,7.755,1.47l.006-3.99c-1.929.228-2.9.816-2.9-1.606,0-1.651-.086-3.542.014-5.164l2.722-.034,0-3.668-2.731-.008V11.931ZM193.611,31.031l5.732.028.007-14.427-5.736-.034ZM199.3,11.538l-5.658-.01.009,3.852,5.65,0Z" transform="translate(-53.073 -5.151)"/><path class="e" d="M116.029.976a2.435,2.435,0,0,1,2.5,2.5,2.5,2.5,0,1,1-5,0,2.435,2.435,0,0,1,2.5-2.5m0,4.652a2.087,2.087,0,0,0,2.118-2.153,2.118,2.118,0,1,0-4.236,0,2.087,2.087,0,0,0,2.118,2.153m-.084-3.681a.9.9,0,0,1,.993.875.849.849,0,0,1-.659.834l.833,1.208h-.438l-.8-1.167h-.368V4.865h-.354V1.948Zm-.437,1.417h.437c.376,0,.639-.181.639-.542s-.264-.541-.639-.541h-.437Z" transform="translate(-42.573 -0.366)"/><path class="e" d="M310.982,5.023a2.435,2.435,0,0,1,2.5,2.5,2.5,2.5,0,0,1-5,0,2.435,2.435,0,0,1,2.5-2.5m0,4.653A2.087,2.087,0,0,0,313.1,7.523a2.118,2.118,0,1,0-4.236,0,2.087,2.087,0,0,0,2.118,2.153M310.9,5.995a.9.9,0,0,1,.993.875.849.849,0,0,1-.659.834l.833,1.208h-.437l-.8-1.166h-.368V8.912h-.354V5.995Zm-.437,1.417h.438c.376,0,.639-.181.639-.542s-.264-.541-.639-.541h-.437Z" transform="translate(-115.681 -2.884)"/><path class="e" d="M147.656,61.745a3.459,3.459,0,0,0-1.094-.823,3.038,3.038,0,0,0-1.284-.266,2.88,2.88,0,0,0-2.041.869,2.859,2.859,0,0,0-.616.95,3.172,3.172,0,0,0-.205,1.159,3.282,3.282,0,0,0,.122.918,2.634,2.634,0,0,0,.366.772,2.965,2.965,0,0,0,1.057.939,2.966,2.966,0,0,0,2.624.047,3.327,3.327,0,0,0,1.069-.845v1.128a4.08,4.08,0,0,1-2.412.781,3.656,3.656,0,0,1-1.1-.169,3.724,3.724,0,0,1-1.006-.491,3.631,3.631,0,0,1-1.607-3.071,3.931,3.931,0,0,1,.276-1.5,3.611,3.611,0,0,1,.842-1.228,3.658,3.658,0,0,1,1.211-.789,3.933,3.933,0,0,1,1.45-.261,3.89,3.89,0,0,1,1.2.188,4.339,4.339,0,0,1,1.147.584Z" transform="translate(-53.073 -23.449)"/><path class="e" d="M153.544,68.8V64.337h.679v.928a2.357,2.357,0,0,1,.654-.83,1.406,1.406,0,0,1,.844-.249,1.507,1.507,0,0,1,.264.022,1.58,1.58,0,0,1,.254.066l-.254.689a1.923,1.923,0,0,0-.249-.066,1.244,1.244,0,0,0-.225-.022,1.031,1.031,0,0,0-.908.437,2.323,2.323,0,0,0-.3,1.316V68.8Z" transform="translate(-57.579 -25.069)"/><path class="e" d="M162.9,66.674h-3.54v.068a1.637,1.637,0,0,0,.411,1.16,1.391,1.391,0,0,0,1.069.442,1.423,1.423,0,0,0,.811-.243,2.111,2.111,0,0,0,.639-.73l.581.391a2.234,2.234,0,0,1-2.071,1.221,2.152,2.152,0,0,1-1.65-.674,2.481,2.481,0,0,1-.63-1.768,2.417,2.417,0,0,1,.625-1.719,2.1,2.1,0,0,1,1.606-.668,2.019,2.019,0,0,1,1.57.634,2.475,2.475,0,0,1,.578,1.733Zm-.82-.621a1.29,1.29,0,0,0-.393-.911,1.4,1.4,0,0,0-.969-.32,1.306,1.306,0,0,0-1.357,1.231Z" transform="translate(-59.445 -25.058)"/><path class="e" d="M171.327,64.331V68.8h-.742v-.81a1.952,1.952,0,0,1-.686.744,1.743,1.743,0,0,1-.935.258,1.975,1.975,0,0,1-1.55-.662,2.539,2.539,0,0,1-.589-1.751,2.566,2.566,0,0,1,.571-1.754,1.928,1.928,0,0,1,1.529-.653,1.727,1.727,0,0,1,1.641,1v-.84Zm-.742,2.276a1.758,1.758,0,0,0-.413-1.217,1.525,1.525,0,0,0-2.151-.037,1.7,1.7,0,0,0-.386,1.187,1.83,1.83,0,0,0,.388,1.25,1.4,1.4,0,0,0,1.1.439A1.377,1.377,0,0,0,170.2,67.8a1.714,1.714,0,0,0,.388-1.194" transform="translate(-62.559 -25.064)"/><path class="e" d="M176.169,63.977h-.82v-.63h.82v-1.8h.781v1.8h.821v.63h-.821v3.838h-.781Z" transform="translate(-65.756 -24.079)"/><path class="e" d="M180.388,60.649a.533.533,0,0,1,.164-.393.539.539,0,0,1,.4-.164.532.532,0,0,1,.393.166.549.549,0,0,1,.164.4.532.532,0,0,1-.161.391.538.538,0,0,1-.4.161.555.555,0,0,1-.561-.561m.181,2.153h.771V67.27h-.771Z" transform="translate(-67.646 -23.534)"/><path class="e" d="M184.49,68.8V64.331h.746v.688a1.871,1.871,0,0,1,.694-.639,2,2,0,0,1,.938-.21,1.724,1.724,0,0,1,1.235.42,1.528,1.528,0,0,1,.444,1.167V68.8h-.781V66.167a1.507,1.507,0,0,0-.286-1.008,1.1,1.1,0,0,0-.881-.33,1.516,1.516,0,0,0-.623.125,1.217,1.217,0,0,0-.466.354,1.065,1.065,0,0,0-.2.4,3.367,3.367,0,0,0-.061.781V68.8Z" transform="translate(-69.184 -25.064)"/><path class="e" d="M197.358,64.331v4.39a3.825,3.825,0,0,1-.1,1.035,1.465,1.465,0,0,1-.322.552,1.937,1.937,0,0,1-.764.5,3,3,0,0,1-1.038.166,2.438,2.438,0,0,1-1.584-.464,1.663,1.663,0,0,1-.594-1.314h.859v.059a.932.932,0,0,0,.347.776,1.549,1.549,0,0,0,.981.274,1.858,1.858,0,0,0,.784-.149,1.076,1.076,0,0,0,.5-.442,1.145,1.145,0,0,0,.147-.386,3.416,3.416,0,0,0,.044-.63v-.752a1.891,1.891,0,0,1-.679.735,1.77,1.77,0,0,1-.942.256,1.982,1.982,0,0,1-1.55-.654,2.891,2.891,0,0,1-.018-3.474,1.945,1.945,0,0,1,1.529-.642,1.86,1.86,0,0,1,.976.252,1.748,1.748,0,0,1,.664.739v-.83Zm-.742,2.246a1.749,1.749,0,0,0-.41-1.211,1.533,1.533,0,0,0-2.154-.034,1.7,1.7,0,0,0-.386,1.186,1.828,1.828,0,0,0,.388,1.25,1.391,1.391,0,0,0,1.1.439,1.367,1.367,0,0,0,1.072-.432,1.731,1.731,0,0,0,.388-1.2" transform="translate(-72.321 -25.064)"/><path class="e" d="M207.38,67.287V60.138h.849v2.749h3.8V60.138h.864v7.149h-.864V63.7h-3.8v3.589Z" transform="translate(-77.768 -23.552)"/><path class="e" d="M222.765,64.331V68.8h-.742v-.81a1.947,1.947,0,0,1-.686.744,1.743,1.743,0,0,1-.935.258,1.976,1.976,0,0,1-1.55-.662,2.539,2.539,0,0,1-.589-1.751,2.566,2.566,0,0,1,.571-1.754,1.929,1.929,0,0,1,1.529-.653,1.831,1.831,0,0,1,.974.252,1.805,1.805,0,0,1,.667.749v-.84Zm-.742,2.276a1.755,1.755,0,0,0-.413-1.217,1.525,1.525,0,0,0-2.151-.037,1.7,1.7,0,0,0-.386,1.187,1.83,1.83,0,0,0,.388,1.25,1.4,1.4,0,0,0,1.1.439,1.376,1.376,0,0,0,1.072-.428,1.714,1.714,0,0,0,.388-1.194" transform="translate(-81.849 -25.064)"/><path class="e" d="M227.911,70.977V64.331h.728v.84a1.9,1.9,0,0,1,.684-.742,1.785,1.785,0,0,1,.947-.259,1.976,1.976,0,0,1,1.553.659,2.534,2.534,0,0,1,.586,1.748,2.568,2.568,0,0,1-.574,1.76,1.943,1.943,0,0,1-1.536.652,1.8,1.8,0,0,1-.962-.251,1.859,1.859,0,0,1-.669-.749v2.988Zm.738-4.4a1.722,1.722,0,0,0,.415,1.206,1.416,1.416,0,0,0,1.1.454,1.36,1.36,0,0,0,1.052-.415,1.63,1.63,0,0,0,.384-1.152,1.984,1.984,0,0,0-.384-1.294,1.3,1.3,0,0,0-1.067-.469,1.4,1.4,0,0,0-1.1.444,1.765,1.765,0,0,0-.4,1.226" transform="translate(-85.467 -25.064)"/><path class="e" d="M237.059,70.977V64.331h.728v.84a1.9,1.9,0,0,1,.684-.742,1.785,1.785,0,0,1,.948-.259,1.975,1.975,0,0,1,1.552.659,2.534,2.534,0,0,1,.586,1.748,2.568,2.568,0,0,1-.574,1.76,1.943,1.943,0,0,1-1.536.652,1.8,1.8,0,0,1-.962-.251,1.863,1.863,0,0,1-.669-.749v2.988Zm.738-4.4a1.721,1.721,0,0,0,.414,1.206,1.417,1.417,0,0,0,1.1.454,1.359,1.359,0,0,0,1.052-.415,1.627,1.627,0,0,0,.384-1.152,1.981,1.981,0,0,0-.384-1.294,1.3,1.3,0,0,0-1.067-.469,1.4,1.4,0,0,0-1.1.444,1.765,1.765,0,0,0-.4,1.226" transform="translate(-88.897 -25.064)"/><path class="e" d="M245.594,71.073l1.211-2.617-1.753-4.029h.884l1.3,3.208,1.377-3.208h.84l-3,6.646Z" transform="translate(-91.895 -25.16)"/><rect class="e" width="0.849" height="7.149" transform="translate(161.317 36.587)"/><path class="e" d="M262.107,68.8V64.331h.747v.688a1.872,1.872,0,0,1,.694-.639,2.008,2.008,0,0,1,.938-.21,1.723,1.723,0,0,1,1.235.42,1.528,1.528,0,0,1,.444,1.167V68.8h-.781V66.167a1.507,1.507,0,0,0-.286-1.008,1.1,1.1,0,0,0-.881-.33,1.519,1.519,0,0,0-.622.125,1.223,1.223,0,0,0-.466.354,1.076,1.076,0,0,0-.2.4,3.364,3.364,0,0,0-.061.781V68.8Z" transform="translate(-98.29 -25.064)"/><path class="e" d="M272.045,69.174l-2.212-4.746h.859l1.342,3.12,1.348-3.12h.859Z" transform="translate(-101.187 -25.16)"/><path class="e" d="M281.963,66.674h-3.54v.068a1.637,1.637,0,0,0,.411,1.16,1.391,1.391,0,0,0,1.069.442,1.422,1.422,0,0,0,.811-.243,2.1,2.1,0,0,0,.639-.73l.581.391a2.234,2.234,0,0,1-2.071,1.221,2.152,2.152,0,0,1-1.65-.674,2.481,2.481,0,0,1-.63-1.768,2.417,2.417,0,0,1,.625-1.719,2.1,2.1,0,0,1,1.606-.668,2.018,2.018,0,0,1,1.57.634,2.475,2.475,0,0,1,.578,1.733Zm-.82-.621a1.288,1.288,0,0,0-.393-.911,1.4,1.4,0,0,0-.969-.32,1.306,1.306,0,0,0-1.358,1.231Z" transform="translate(-104.094 -25.058)"/><path class="e" d="M285.677,68.047l.654-.439a1.346,1.346,0,0,0,.469.534,1.225,1.225,0,0,0,.669.178.942.942,0,0,0,.608-.185.6.6,0,0,0,.232-.489.527.527,0,0,0-.159-.391,1.467,1.467,0,0,0-.544-.288l-.127-.044q-1.63-.562-1.631-1.406a1.22,1.22,0,0,1,.44-.972,1.7,1.7,0,0,1,1.143-.376,2.012,2.012,0,0,1,1,.232,1.335,1.335,0,0,1,.6.657l-.621.381a1.035,1.035,0,0,0-.4-.474,1.148,1.148,0,0,0-.617-.166.8.8,0,0,0-.549.188.614.614,0,0,0-.213.481q0,.41.889.689c.11.036.2.063.264.083a2.457,2.457,0,0,1,1.013.535,1.1,1.1,0,0,1,.286.793,1.3,1.3,0,0,1-.452,1.028,1.731,1.731,0,0,1-1.179.393,2.219,2.219,0,0,1-1.062-.234,1.738,1.738,0,0,1-.7-.708" transform="translate(-107.129 -25.064)"/><path class="e" d="M292.646,63.977h-.82v-.63h.82v-1.8h.781v1.8h.821v.63h-.821v3.838h-.781Z" transform="translate(-109.435 -24.079)"/><path class="e" d="M296.513,66.577a2.418,2.418,0,0,1,.181-.93,2.34,2.34,0,0,1,.528-.779,2.386,2.386,0,0,1,.786-.52,2.459,2.459,0,0,1,.938-.179,2.406,2.406,0,0,1,.925.181,2.506,2.506,0,0,1,.794.527,2.286,2.286,0,0,1,.527.774,2.39,2.39,0,0,1,.181.925,2.359,2.359,0,0,1-.181.921,2.289,2.289,0,0,1-.527.769,2.528,2.528,0,0,1-.8.537,2.352,2.352,0,0,1-.92.185,2.407,2.407,0,0,1-.935-.183,2.45,2.45,0,0,1-.789-.524,2.476,2.476,0,0,1-.528-.781,2.365,2.365,0,0,1-.181-.923m.811,0a1.662,1.662,0,0,0,.474,1.2,1.536,1.536,0,0,0,1.148.491,1.515,1.515,0,0,0,1.138-.491,1.767,1.767,0,0,0,0-2.4,1.515,1.515,0,0,0-1.138-.491,1.535,1.535,0,0,0-1.15.491,1.665,1.665,0,0,0-.471,1.2" transform="translate(-111.192 -25.064)"/><path class="e" d="M306.208,68.8V64.337h.679v.928a2.358,2.358,0,0,1,.654-.83,1.408,1.408,0,0,1,.844-.249,1.508,1.508,0,0,1,.264.022,1.563,1.563,0,0,1,.254.066l-.254.689a1.923,1.923,0,0,0-.249-.066,1.244,1.244,0,0,0-.225-.022,1.033,1.033,0,0,0-.908.437,2.323,2.323,0,0,0-.3,1.316V68.8Z" transform="translate(-114.828 -25.069)"/><path class="e" d="M311.052,68.047l.654-.439a1.346,1.346,0,0,0,.469.534,1.225,1.225,0,0,0,.669.178.942.942,0,0,0,.608-.185.6.6,0,0,0,.232-.489.527.527,0,0,0-.159-.391,1.467,1.467,0,0,0-.544-.288l-.127-.044q-1.63-.562-1.631-1.406a1.22,1.22,0,0,1,.44-.972,1.7,1.7,0,0,1,1.143-.376,2.012,2.012,0,0,1,1,.232,1.335,1.335,0,0,1,.6.657l-.621.381a1.035,1.035,0,0,0-.4-.474,1.148,1.148,0,0,0-.617-.166.8.8,0,0,0-.549.188.614.614,0,0,0-.213.481q0,.41.889.689c.11.036.2.063.264.083a2.458,2.458,0,0,1,1.013.535,1.1,1.1,0,0,1,.286.793,1.3,1.3,0,0,1-.452,1.028,1.731,1.731,0,0,1-1.179.393,2.22,2.22,0,0,1-1.062-.234,1.738,1.738,0,0,1-.7-.708" transform="translate(-116.645 -25.064)"/></g></svg>