<svg xmlns="http://www.w3.org/2000/svg" viewBox="0 0 763.16 363.13"><defs><style>.cls-1,.cls-10{fill:#fff;}.cls-2{fill:#ee2624;}.cls-12,.cls-3{fill:#f4e41b;}.cls-3{stroke:#231f20;stroke-miterlimit:10;stroke-width:0.25px;}.cls-4{fill:#010203;}.cls-4,.cls-5,.cls-6,.cls-7,.cls-9{opacity:0.6;}.cls-11,.cls-5{fill:#231f20;}.cls-7{fill:#030507;}.cls-8{opacity:0.62;}.cls-10{font-size:218.93px;font-family:Lot-Regular, Lot;}</style></defs><g id="Layer_2" data-name="Layer 2"><g id="Layer_1-2" data-name="Layer 1"><path class="cls-1" d="M300.47,181.66v26.1h-16v3.32h16v18.58h-16V233h16v26.09H236.33V181.66Z"/><path class="cls-2" d="M349.45,176.36l48.88,82.82H300.57Z"/><path class="cls-1" d="M458.37,220.48v38.7H398.22v-77.4h38.7v38.7Z"/><path class="cls-1" d="M504.81,181.78v77.4H464.56v-77.4Z"/><path class="cls-1" d="M565.08,259.29H526.37v-38.7h-16V181.78h69.78v38.81h-15Z"/><path class="cls-1" d="M641.93,259.18H603.22v-38.7l-21.67-38.7H663.6l-21.67,38.7Z"/><path class="cls-1" d="M289.19,271.77v21.51H276V296h13.22v15.31H276v2.73h13.22v21.51H236.33V271.77Z"/><path class="cls-1" d="M344.15,303.76v31.89H294.57V271.86h31.9v31.9Z"/><path class="cls-1" d="M448,267.39l40.28,68.26H407.68Z"/><path class="cls-3" d="M415.51,303.67a34,34,0,1,1-34-34A34,34,0,0,1,415.51,303.67Z"/><path class="cls-1" d="M516,335.74a31.94,31.94,0,0,1,0-63.88h31.9v63.88Z"/><path class="cls-1" d="M609.1,271.77v21.51H595.88V296H609.1v15.31H595.88v2.73H609.1v21.51H556.24V271.77Z"/><path class="cls-1" d="M614.48,335.74V271.86h31.9a31.94,31.94,0,0,1,0,63.88Z"/><path class="cls-4" d="M613.46,216.74l-7.12-12.56a2,2,0,0,0-3.6,1.79l6.63,11.7V233c0,2.59,4,2.59,4,0V218.6A1.85,1.85,0,0,0,613.46,216.74Z"/><path class="cls-5" d="M441.21,228H428.9V215.53a2,2,0,1,0-4,0v14.14a2,2,0,0,0,.88,1.65,2,2,0,0,0,1.49.68h14a2,2,0,1,0,0-4Z"/><g class="cls-6"><path d="M493.71,192.69v17.88c0,1.54.92,3,2,3s2-1.3,2-3V192.69c0-1.54-.93-3-2-2.94s-2,1.29-2,2.94Z"/></g><path class="cls-7" d="M560.33,252.14v-8.4a2,2,0,0,0-4,0v7.63H543.37c-2.58,0-2.59,4,0,4h15.4A2,2,0,0,0,560.33,252.14Z"/><g class="cls-6"><path d="M510.14,280.77a23.87,23.87,0,0,0-4.46.74,11.89,11.89,0,0,0-4,2.08,12.48,12.48,0,0,0-4.17,6.69,2,2,0,0,0,3.88,1.07c.07-.29.15-.58.25-.87s.09-.28.14-.41.14-.35,0-.08a10.67,10.67,0,0,1,.77-1.46c.14-.23.3-.44.45-.66-.28.4,0,0,.07-.07a2.2,2.2,0,0,1,.2-.23,12.28,12.28,0,0,1,1.11-1.05c.2-.18-.4.27,0,0l.29-.2a8,8,0,0,1,.7-.41c.14-.08.28-.14.43-.21.32-.16-.08,0,.12-.06s.58-.21.87-.29a13.84,13.84,0,0,1,1.78-.4l.45-.07c-.3.05-.08,0,.09,0l1-.11a2,2,0,0,0,0-4Z"/><g class="cls-8"><path d="M665.63,317.15a27.39,27.39,0,0,1-2.9,4.55,14.1,14.1,0,0,1-4.13,3.4,15,15,0,0,1-9.3,1.46,2.4,2.4,0,0,1,.63-4.76c.36.05.72.1,1.07.13l.53,0c.21,0,.44,0,.1,0a12.86,12.86,0,0,0,2-.17c.32-.05.62-.12.93-.19-.57.12,0,0,.12,0l.34-.11a16.54,16.54,0,0,0,1.67-.73c.29-.14-.48.3,0,0l.34-.22c.27-.19.53-.38.79-.59l.43-.37c.33-.28-.06.09.12-.1s.49-.54.73-.83a17.15,17.15,0,0,0,1.26-1.77c.1-.15.19-.3.28-.46-.18.31-.05.09.06-.09l.57-1a2.45,2.45,0,0,1,3.15-1.27,2.42,2.42,0,0,1,1.27,3.15Z"/></g></g><g class="cls-6"><path d="M562.71,296.44v16.64a1.89,1.89,0,1,0,3.75,0V296.44a1.89,1.89,0,1,0-3.75,0Z"/></g><path class="cls-4" d="M334.29,324.47v-11h-9.75a1.81,1.81,0,0,1,0-3.58h11.07a1.56,1.56,0,0,1,1.29.79,1.9,1.9,0,0,1,.53,1.32v12.44a1.58,1.58,0,1,1-3.14,0Z"/><path class="cls-9" d="M259.93,187.24H245.75a1.64,1.64,0,0,1-.72,0,2.14,2.14,0,0,0-2.05,2.17V204a2,2,0,1,0,4.09,0v-12.4h12.86a2.17,2.17,0,0,0,0-4.34Z"/><path class="cls-9" d="M258.61,330.83H245.52l-.33,0a1.87,1.87,0,0,1-.34,0,2,2,0,0,1-1.88-2V315.38a1.89,1.89,0,1,1,3.77,0v11.45h11.87a2,2,0,0,1,0,4Z"/><text class="cls-10" transform="translate(80.25 335.33)">R</text><g class="cls-6"><path class="cls-11" d="M180,207.25c1.75.17,3.42,1.59,4.72,2.79a58,58,0,0,1,4.78,5,50.86,50.86,0,0,1,7.14,11.19,39.44,39.44,0,0,1,2.93,25.5,32.94,32.94,0,0,1-6.1,13,3.09,3.09,0,0,0,0,4.24c1,1.05,3.23,1.28,4.24,0a41.36,41.36,0,0,0,8.67-29.1c-.88-10.56-5.44-20.34-12.11-28.47-3.66-4.45-8.21-9.6-14.27-10.19a3,3,0,0,0-3,3,3.07,3.07,0,0,0,3,3Z"/></g><g class="cls-8"><path d="M438.07,303.29l4.82-7.58a75.14,75.14,0,0,0,4.36-7.4c.89-1.81-1.95-3.14-2.83-1.33a78.41,78.41,0,0,1-4.36,7.4L435.24,302A1.56,1.56,0,0,0,436,304a1.6,1.6,0,0,0,2.08-.75Z"/></g><path class="cls-1" d="M0,15.73C0,6.53,6.86,0,16.73,0c9.71,0,16.74,6.53,16.74,15.73s-7,15.73-16.74,15.73C6.86,31.46,0,24.94,0,15.73ZM2,127.52V38.82H31.63v88.7Z"/><path class="cls-1" d="M49,113.63c0-9.37,6.52-15.57,16.23-15.57s16.06,6.2,16.06,15.57c0,9.2-6.35,15.39-16.06,15.39S49,122.83,49,113.63Z"/><path class="cls-1" d="M173.36,38.82H131V59.24h38.66V87.52H131v40H99.56V10.38h73.8Z"/><path class="cls-1" d="M222.72,99.57h46.86v28h-78V10.38h76.65V37.82H222.72V55.39h42v27h-42Z"/><path class="cls-1" d="M282.12,89.53h31c.67,7.87,6,11.88,16.07,11.88,9,0,14.39-3.51,14.39-8.87,0-6-5.52-9.2-20.08-11.54-23.77-3.69-40-12.89-40-35.31,0-23.6,18.74-37.16,44.68-37.16,25.77,0,43,14.56,44.68,38H342.37c-1-6.86-6-10.54-14.56-10.54s-13.39,3.18-13.39,8.87,4.85,8.2,19.58,10.54c24.43,3.52,41,13.73,41,36.15,0,24.43-19.58,37.65-45.85,37.65C301.2,129.19,283.29,115.14,282.12,89.53Z"/><path class="cls-1" d="M473.06,10.38V39.16H443.77v88.36H412.14V39.16H382.69V10.38Z"/><path class="cls-1" d="M562.57,10.38v2.84L555,54.72H528.1V45.85l10.54-35.47Z"/><path class="cls-1" d="M636.71,100.41h25.77v27.11H575V108.27l42.34-39.15C627.5,59.41,630.51,55.06,630.51,49c0-7-4.85-11.71-12-11.71-7.37,0-12.22,5.35-12.22,13.72H576.46c0-25.6,16.9-42.84,42.34-42.84,25.1,0,42.67,16.07,42.67,38.83,0,14.39-6.19,25.6-23.59,41l-14.56,13.06Z"/><path class="cls-1" d="M735.43,100.41H761.2v27.11H673.68V108.27L716,69.12c10.21-9.71,13.22-14.06,13.22-20.09,0-7-4.85-11.71-12-11.71C709.83,37.32,705,42.67,705,51H675.19c0-25.6,16.9-42.84,42.34-42.84,25.1,0,42.67,16.07,42.67,38.83,0,14.39-6.19,25.6-23.6,41l-14.55,13.06Z"/><polygon class="cls-12" points="763.16 151.74 1.96 151.74 1.96 157.31 427.46 157.31 763.16 157.31 763.16 151.74"/><rect class="cls-2" x="99.39" y="107.63" width="31.65" height="19.89"/><rect class="cls-12" x="412.14" y="106.86" width="31.59" height="20.66"/><polygon class="cls-12" points="662.47 100.3 662.48 127.55 641.82 127.51 641.82 100.41 662.47 100.3"/><polygon class="cls-2" points="761.19 100.3 761.2 127.55 740.55 127.51 740.55 100.41 761.19 100.3"/></g></g></svg>