<svg id="Group_9" data-name="Group 9" xmlns="http://www.w3.org/2000/svg" xmlns:xlink="http://www.w3.org/1999/xlink" width="43.777" height="43.776" viewBox="0 0 43.777 43.776">
  <defs>
    <linearGradient id="linear-gradient" y1="0.5" x2="1" y2="0.5" gradientUnits="objectBoundingBox">
      <stop offset="0" stop-color="#48b1cb"/>
      <stop offset="0.47" stop-color="#0f5ccc"/>
      <stop offset="1" stop-color="#ac48a9"/>
    </linearGradient>
    <linearGradient id="linear-gradient-2" x1="-0.001" x2="1" xlink:href="#linear-gradient"/>
  </defs>
  <path id="Path_17" data-name="Path 17" d="M222.118,43.777a21.888,21.888,0,1,1,21.888-21.888A21.913,21.913,0,0,1,222.118,43.777Zm0-41.425a19.537,19.537,0,1,0,19.537,19.537A19.559,19.559,0,0,0,222.118,2.351Z" transform="translate(-200.23)" fill="url(#linear-gradient)"/>
  <path id="Path_18" data-name="Path 18" d="M251.211,40.074V52.759a.329.329,0,0,0,.33.33h4.713a.329.329,0,0,0,.33-.33V39.865H260a.331.331,0,0,0,.33-.3l.33-3.883a.332.332,0,0,0-.33-.359h-3.743V32.562a1.168,1.168,0,0,1,1.169-1.169h2.632a.329.329,0,0,0,.33-.33V27.18a.329.329,0,0,0-.33-.33H255.94a4.726,4.726,0,0,0-4.726,4.726v3.746H248.86a.329.329,0,0,0-.33.33v3.883a.329.329,0,0,0,.33.33h2.355v.206Z" transform="translate(-232.756 -18.081)" fill-rule="evenodd" fill="url(#linear-gradient-2)"/>
</svg>
