<svg id="Group_10" data-name="Group 10" xmlns="http://www.w3.org/2000/svg" xmlns:xlink="http://www.w3.org/1999/xlink" width="43.777" height="43.776" viewBox="0 0 43.777 43.776">
  <defs>
    <linearGradient id="linear-gradient" y1="0.5" x2="1" y2="0.5" gradientUnits="objectBoundingBox">
      <stop offset="0" stop-color="#48b1cb"/>
      <stop offset="0.47" stop-color="#0f5ccc"/>
      <stop offset="1" stop-color="#ac48a9"/>
    </linearGradient>
    <linearGradient id="linear-gradient-2" xlink:href="#linear-gradient"/>
    <linearGradient id="linear-gradient-3" y1="0.654" x2="0.995" y2="0.654" xlink:href="#linear-gradient"/>
    <linearGradient id="linear-gradient-4" x1="-0.031" y1="0.571" y2="0.571" xlink:href="#linear-gradient"/>
  </defs>
  <path id="Path_12" data-name="Path 12" d="M21.888,43.777A21.888,21.888,0,1,1,43.777,21.888,21.913,21.913,0,0,1,21.888,43.777Zm0-41.425A19.537,19.537,0,1,0,41.425,21.888,19.561,19.561,0,0,0,21.888,2.351Z" fill="url(#linear-gradient)"/>
  <g id="Group_4" data-name="Group 4" transform="translate(9.051 11.38)">
    <path id="Path_13" data-name="Path 13" d="M53.131,37.364a10.524,10.524,0,0,1-2.577.735c.415-.069,1.029-.823,1.27-1.127a4.789,4.789,0,0,0,.859-1.564c.023-.046.039-.1-.007-.134a.145.145,0,0,0-.137.013,13.314,13.314,0,0,1-3.06,1.172.206.206,0,0,1-.212-.056A2.376,2.376,0,0,0,49,36.13a5.375,5.375,0,0,0-1.483-.908,5.112,5.112,0,0,0-2.273-.366,5.447,5.447,0,0,0-2.159.611,5.592,5.592,0,0,0-1.741,1.421,5.293,5.293,0,0,0-1.039,2.08,5.658,5.658,0,0,0-.056,2.2c.016.124.007.14-.1.124a16.359,16.359,0,0,1-10.52-5.353c-.124-.14-.189-.14-.291.01a5.338,5.338,0,0,0,.908,6.3,8.293,8.293,0,0,0,.647.568,5.367,5.367,0,0,1-2.028-.568c-.124-.078-.183-.033-.2.108a3.456,3.456,0,0,0,.033.6,5.4,5.4,0,0,0,3.325,4.3,3.234,3.234,0,0,0,.676.206,6.035,6.035,0,0,1-1.992.062c-.144-.029-.2.046-.144.183a5.589,5.589,0,0,0,4.184,3.5c.189.033.379.033.568.078-.01.016-.023.016-.033.033-.47.715-2.1,1.248-2.858,1.515a10.2,10.2,0,0,1-4.337.555c-.232-.033-.281-.033-.346,0s-.007.095.065.157c.3.2.6.369.9.536a14.265,14.265,0,0,0,2.9,1.159,15.444,15.444,0,0,0,15-3.508c3.073-3.054,4.151-7.263,4.151-11.48,0-.167.2-.255.31-.343A10.106,10.106,0,0,0,53.1,37.792a.618.618,0,0,0,.127-.4v-.023c0-.069.01-.046-.095,0Z" transform="translate(-27.713 -34.844)" fill="url(#linear-gradient-2)"/>
    <path id="Path_14" data-name="Path 14" d="M50.519,98.92Z" transform="translate(-42.939 -77.993)" fill="#fff" fill-rule="evenodd"/>
    <path id="Path_15" data-name="Path 15" d="M53.55,98.941c0-.042.451,0,0,0C53.55,98.918,53.606,98.941,53.55,98.941Z" transform="translate(-45.112 -77.995)" fill-rule="evenodd" fill="url(#linear-gradient-3)"/>
    <path id="Path_16" data-name="Path 16" d="M80.965,34.94a.088.088,0,0,1-.1,0Z" transform="translate(-63.503 -34.909)" fill-rule="evenodd" fill="url(#linear-gradient-4)"/>
  </g>
</svg>
