<svg xmlns="http://www.w3.org/2000/svg" xmlns:xlink="http://www.w3.org/1999/xlink" width="53.106" height="53.105" viewBox="0 0 53.106 53.105">
  <defs>
    <linearGradient id="linear-gradient" y1="0.5" x2="1" y2="0.5" gradientUnits="objectBoundingBox">
      <stop offset="0" stop-color="#48b1cb"/>
      <stop offset="0.47" stop-color="#0f5ccc"/>
      <stop offset="1" stop-color="#ac48a9"/>
    </linearGradient>
  </defs>
  <g id="OBJECTS" transform="translate(0 0.001)">
    <g id="Group_12" data-name="Group 12" transform="translate(0 -0.001)">
      <path id="Path_22" data-name="Path 22" d="M28.589,53.1h-.828a.575.575,0,0,0-.518,0h-1.45a.815.815,0,0,0-.622,0h-.828a21.787,21.787,0,0,0-2.266-.186,14.946,14.946,0,0,1-3.379-.724,26.161,26.161,0,0,1-9.746-5.412A26.788,26.788,0,0,1,.328,32.151a23.857,23.857,0,0,1-.276-3.042c-.006-.084.014-.173-.052-.244v-.932a.815.815,0,0,0,0-.622V25.86a.815.815,0,0,0,0-.622v-.932a19.726,19.726,0,0,0,.175-2.067A20.669,20.669,0,0,1,1.961,15.91a25.421,25.421,0,0,1,4.35-6.883A26.717,26.717,0,0,1,21.443.292,15.73,15.73,0,0,1,23.7.081a44.325,44.325,0,0,1,7.386.15,22.038,22.038,0,0,1,6.183,1.829,25.964,25.964,0,0,1,6.751,4.271,26.76,26.76,0,0,1,8.784,15.159,16.179,16.179,0,0,1,.213,2.258,44.426,44.426,0,0,1-.145,7.385,21.568,21.568,0,0,1-1.847,6.231,25.956,25.956,0,0,1-4.244,6.712,27,27,0,0,1-7.311,5.938,26.371,26.371,0,0,1-7.39,2.761,23.059,23.059,0,0,1-3.2.276c-.1.005-.208-.027-.3.052Z" transform="translate(0 0.001)" fill="url(#linear-gradient)"/>
      <path id="Path_23" data-name="Path 23" d="M0,233.37a.524.524,0,0,1,0,.622Z" transform="translate(0 -208.13)" fill="#45cdcd"/>
      <path id="Path_24" data-name="Path 24" d="M0,252.52a.524.524,0,0,1,0,.622v-.622Z" transform="translate(0 -225.209)" fill="#45cdcd"/>
      <path id="Path_25" data-name="Path 25" d="M232.73,490.154a.519.519,0,0,1,.622,0Z" transform="translate(-207.559 -437.049)" fill="#48cece"/>
      <path id="Path_26" data-name="Path 26" d="M251.89,490.227a.4.4,0,0,1,.518,0Z" transform="translate(-224.647 -437.123)" fill="#48cece"/>
      <path id="Path_27" data-name="Path 27" d="M96.439,141.349a7.669,7.669,0,0,1,2.861-6.317,1.944,1.944,0,0,1,2.793.118q2.158,2.127,4.287,4.282a1.954,1.954,0,0,1,.046,2.944c-.667.722-1.372,1.41-2.083,2.091a.463.463,0,0,0-.128.65,21.627,21.627,0,0,0,9.914,9.929.475.475,0,0,0,.666-.1c.6-.64,1.242-1.248,1.854-1.881a2.2,2.2,0,0,1,3.37-.024c1.286,1.3,2.581,2.6,3.87,3.892,1.178,1.185,1.161,2.247-.005,3.456-2.289,2.371-5.017,2.773-8.093,1.958a23.275,23.275,0,0,1-8.5-4.458,39.879,39.879,0,0,1-8.3-8.906,13.525,13.525,0,0,1-2.551-7.637Z" transform="translate(-86.009 -119.951)" fill="#fefefe"/>
      <path id="Path_28" data-name="Path 28" d="M223.658,84.3c7.358.77,12.731,4.391,15.875,11.159a17.181,17.181,0,0,1,1.539,6.918c.009.367-.1.465-.459.467-1.365.006-1.364.018-1.441-1.288a16.794,16.794,0,0,0-13.608-15.129A17.257,17.257,0,0,0,223,86.164c-.375-.006-.488-.148-.446-.491a2.891,2.891,0,0,0,0-.362q0-1.07,1.1-1.008Z" transform="translate(-198.474 -75.182)" fill="#fefefe"/>
      <path id="Path_29" data-name="Path 29" d="M222.5,137.369c.032-.992-.221-.927.905-.864a12.948,12.948,0,0,1,11.78,10.669c.093.6.127,1.2.195,1.8.032.281-.057.389-.361.4-1.455.069-1.455.079-1.586-1.334a11.09,11.09,0,0,0-8.73-9.481,6.85,6.85,0,0,0-1.64-.2c-.459.024-.637-.127-.567-.581a2.781,2.781,0,0,0,0-.414Z" transform="translate(-198.421 -121.714)" fill="#fefefe"/>
      <path id="Path_30" data-name="Path 30" d="M222.488,180.134q0-.994,1.02-.848a8.337,8.337,0,0,1,7.283,7.8c.023.33-.044.48-.4.458-.429-.027-.927.119-1.275-.053-.4-.2-.2-.767-.29-1.168a6.462,6.462,0,0,0-5.753-5.205c-.517-.047-.654-.212-.583-.672a1.978,1.978,0,0,0,0-.31Z" transform="translate(-198.407 -159.879)" fill="#fefefe"/>
    </g>
  </g>
</svg>
