<svg xmlns="http://www.w3.org/2000/svg" xmlns:xlink="http://www.w3.org/1999/xlink" width="43.489" height="43.492" viewBox="0 0 43.489 43.492">
  <defs>
    <linearGradient id="linear-gradient" x1="0.096" y1="0.844" x2="1.337" y2="-0.212" gradientUnits="objectBoundingBox">
      <stop offset="0" stop-color="#48b1cb"/>
      <stop offset="0.47" stop-color="#0f5ccc"/>
      <stop offset="1" stop-color="#ac48a9"/>
    </linearGradient>
  </defs>
  <path id="Path_19" data-name="Path 19" d="M423.545,45.172a21.746,21.746,0,1,1,21.745-21.748,21.77,21.77,0,0,1-21.745,21.748Zm0-41.425a19.681,19.681,0,1,0,19.681,19.681A19.7,19.7,0,0,0,423.545,3.747ZM430.877,14.6a1.61,1.61,0,1,0,1.61,1.61A1.611,1.611,0,0,0,430.877,14.6Zm-7.152,2.064a6.76,6.76,0,1,0,6.76,6.76,6.768,6.768,0,0,0-6.76-6.76Zm0,11.088a4.331,4.331,0,1,1,4.331-4.331A4.336,4.336,0,0,1,423.724,27.755Zm13.639-9.948a8.243,8.243,0,0,0-8.243-8.243H418.237a8.243,8.243,0,0,0-8.243,8.243V28.689a8.243,8.243,0,0,0,8.243,8.243H429.12a8.243,8.243,0,0,0,8.243-8.243V17.807Zm-2.583,10.882a5.664,5.664,0,0,1-5.663,5.663H418.234a5.662,5.662,0,0,1-5.663-5.663V17.807a5.664,5.664,0,0,1,5.663-5.663h10.882a5.662,5.662,0,0,1,5.663,5.663V28.689Z" transform="translate(-401.8 -1.68)" fill="url(#linear-gradient)"/>
</svg>
